# xmcd
#
# Track frame offsets: 
#        150
#        10348
#        28517
#        44160
#        62651
#        78336
#        92804
#        108956
#        126282
#        144642
#        154559
#        169596
#        185964
#        212657
#
# Disc length: 4138 seconds
#
# Revision: 0
# Processed by: cddbd v1.5.2PL0 Copyright (c) Steve Scherf et al.
# Submitted via: ExactAudioCopy v0.95a4
#
DISCID=c010280e
DTITLE=The Coal Porters - Durango (April 17 - April 30)
DYEAR=2010
DGENRE=Country
TTITLE0=Let's Say Goodbye (Like We Said Hello)
TTITLE1=No More Chains
TTITLE2=Moonlight Midnight
TTITLE3=I'm Not Going Away
TTITLE4=One Is Way Too Many
TTITLE5=The Squeaky Wheel Gets The Oil
TTITLE6=Pretty Polly
TTITLE7=Like A Hurricane
TTITLE8=Permanent Twilight
TTITLE9=Roadkill Breakdown
TTITLE10=Lookin' For A Soft Place To Fall
TTITLE11=Closing Time Genius
TTITLE12=Sail Away, Ladies!
TTITLE13=Data
EXTD=
EXTT0=
EXTT1=
EXTT2=
EXTT3=
EXTT4=
EXTT5=
EXTT6=
EXTT7=
EXTT8=
EXTT9=
EXTT10=
EXTT11=
EXTT12=
EXTT13=
PLAYORDER=
